inDegrees=yes
name=ik_S53_A05_T01
DataType=double
version=3
OpenSimVersion=4.3-2021-08-27-4bc7ad9
endheader
time	pelvis_tilt	pelvis_list	pelvis_rotation	pelvis_tx	pelvis_ty	pelvis_tz	hip_flexion_r	hip_adduction_r	hip_rotation_r	knee_angle_r	knee_angle_r_beta	ankle_angle_r	subtalar_angle_r	mtp_angle_r	hip_flexion_l	hip_adduction_l	hip_rotation_l	knee_angle_l	knee_angle_l_beta	ankle_angle_l	subtalar_angle_l	mtp_angle_l	lumbar_extension	lumbar_bending	lumbar_rotation	arm_flex_r	arm_add_r	arm_rot_r	elbow_flex_r	pro_sup_r	wrist_flex_r	wrist_dev_r	arm_flex_l	arm_add_l	arm_rot_l	elbow_flex_l	pro_sup_l	wrist_flex_l	wrist_dev_l
15.59999999999976	-3.819869905809815	-4.922737314462425	28.14388231027354	0	0.9399999999999999	0	35.18430226328937	-11.02397540506998	-9.627862976740996	51.13045340870213	0.8923947600194101	0	0	0	35.18430226328937	-11.02397540506998	-9.627862976740996	51.13045340870213	0.8923947600194101	0	0	0	-4.163449797061663	-4.953692186789022	6.889440849817317	53.02383899341116	19.97067063795474	33.2166203000676	29.1907353357537	84.6724438407869	0	0	28.01689811806158	-2.042070565281466	23.21922009702267	29.97789522734363	113.8912983060898	0	0
15.61999999999976	-3.822157511945996	-4.922469665590111	28.11154545775914	0	0.9399999999999999	0	35.18684353578784	-11.02306797999527	-9.628074665125055	51.13111771635614	0.8924063543752188	0	0	0	35.18684353578784	-11.02306797999527	-9.628074665125055	51.13111771635614	0.8924063543752188	0	0	0	-4.16291217665876	-4.955982729599472	6.923814833642773	53.16551530574657	19.87691266339726	32.93347338892742	29.30191185364186	84.99979906115861	0	0	28.01984608023349	-2.075756584290445	23.23708932307273	29.98970589818077	113.9037515387698	0	0
15.63999999999976	-3.824612914872907	-4.895413743351513	28.0675001790357	0	0.9399999999999999	0	35.19863147529392	-11.01893636933226	-9.629045576505909	51.13421010112232	0.8924603266711271	0	0	0	35.19863147529392	-11.01893636933226	-9.629045576505909	51.13421010112232	0.8924603266711271	0	0	0	-4.155746378198084	-4.925865717834515	6.89187625027416	53.10370696856106	19.92103731953105	33.03207494280382	29.34824720368632	85.06839477921613	0	0	27.99330240601808	-2.102213959532739	23.14868721534218	30.02102351441582	113.8720016133634	0	0
15.65999999999976	-3.847620089092627	-4.859923004886099	27.95927164358933	0	0.9399999999999999	0	35.20170180135754	-11.01783946592609	-9.629301565527223	51.13500998699404	0.8924742873132286	0	0	0	35.20170180135754	-11.01783946592609	-9.629301565527223	51.13500998699404	0.8924742873132286	0	0	0	-4.160877105358509	-4.881756057384232	6.880291936935543	53.24978214158973	19.67199278233031	32.94812999549079	29.53944004815805	85.05821303948632	0	0	28.011130387319	-2.103253064602306	22.97927538365857	30.02584200599279	113.9086808294168	0	0
15.67999999999975	-3.846124023975926	-4.847293820949959	27.9103361352124	0	0.9399999999999999	0	35.20236368998304	-11.01760754008477	-9.629356062527082	51.1351856838601	0.892477353802027	0	0	0	35.20236368998304	-11.01760754008477	-9.629356062527082	51.1351856838601	0.892477353802027	0	0	0	-4.154735445911436	-4.869683952968186	6.866702885593457	53.29742995779692	19.6031305830846	32.95284145581418	29.55218333307723	85.04863085340439	0	0	27.97930787519579	-2.131386320373277	22.92277698176852	30.01786353776051	113.8978327459459	0	0
15.69999999999975	-3.851892941771822	-4.837263624398912	27.87218025710566	0	0.9399999999999999	0	35.20313096972379	-11.0173376076719	-9.629419403680901	51.13538852722261	0.8924808940865686	0	0	0	35.20313096972379	-11.0173376076719	-9.629419403680901	51.13538852722261	0.8924808940865686	0	0	0	-4.155737159537479	-4.857275047407135	6.860775949151383	53.37123031071535	19.53074155702091	32.94032166761144	29.59480800700155	85.06437700214055	0	0	27.96528529200449	-2.153403024499723	22.89843719483222	30.02078181713013	113.8833832763978	0	0
15.71999999999975	-3.861081078093984	-4.826832516296835	27.83624952350118	0	0.9399999999999999	0	35.20520722674815	-11.01659650546497	-9.629592438658486	51.13592948484894	0.8924903355782617	0	0	0	35.20520722674815	-11.01659650546497	-9.629592438658486	51.13592948484894	0.8924903355782617	0	0	0	-4.159404087701622	-4.843187755007867	6.858974186289164	53.42731089574896	19.46436494913702	32.91876302163529	29.66474876251369	85.11838501970456	0	0	27.96816169242801	-2.174765483052583	22.98133082815413	30.06829649763857	113.802638731116	0	0
15.73999999999975	-3.857651820085628	-4.827262428360793	27.80971315562712	0	0.9399999999999999	0	35.21658815813907	-11.01217651694407	-9.630584441352017	51.13884619222276	0.8925412417252521	0	0	0	35.21658815813907	-11.01217651694407	-9.630584441352017	51.13884619222276	0.8925412417252521	0	0	0	-4.158310992781027	-4.842474139213011	6.84615039890927	53.45347517910299	19.42290944906825	32.92198339871493	29.7184167778138	85.12572283603352	0	0	27.95604825491598	-2.208256115880669	22.96288073814369	30.11209634996795	113.780912915064	0	0
15.75999999999975	-3.851829679316305	-4.822781206043448	27.784964567138	0	0.9399999999999999	0	35.20705313400952	-11.01397792900932	-9.629990511352885	51.1361483295158	0.8924941551382489	0	0	0	35.20705313400952	-11.01397792900932	-9.629990511352885	51.1361483295158	0.8924941551382489	0	0	0	-4.150757274263531	-4.841767152190448	6.839992361765162	53.47139287644747	19.42646763030429	32.92900641485488	29.66714230413984	85.12184573316456	0	-6.162553547153139e-36	27.96349723463328	-2.211502713356193	22.93549358145736	30.06477277137667	113.80166736172	0	-6.162553547153139e-36
